<svg width="25" height="25" viewBox="0 0 25 25" fill="none" xmlns="http://www.w3.org/2000/svg">
<rect width="12" height="12" rx="6" fill="black"/>
<mask id="path-2-inside-1_1849_3877" fill="white">
<rect width="12" height="12" rx="1"/>
</mask>
<rect width="12" height="12" rx="1" stroke="#101011" stroke-width="4" mask="url(#path-2-inside-1_1849_3877)"/>
<rect width="12" height="12" rx="6" stroke="black"/>
<rect x="13" width="12" height="12" rx="2" fill="black"/>
<mask id="path-4-inside-2_1849_3877" fill="white">
<rect x="13" width="12" height="12" rx="1"/>
</mask>
<rect x="13" width="12" height="12" rx="1" stroke="#101011" stroke-width="4" mask="url(#path-4-inside-2_1849_3877)"/>
<rect y="13" width="12" height="12" rx="6" fill="black"/>
<mask id="path-6-inside-3_1849_3877" fill="white">
<rect y="13" width="12" height="12" rx="1"/>
</mask>
<rect y="13" width="12" height="12" rx="1" stroke="#101011" stroke-width="4" mask="url(#path-6-inside-3_1849_3877)"/>
<rect y="13" width="12" height="12" rx="6" stroke="black"/>
<rect x="13" y="13" width="12" height="12" rx="6" fill="black"/>
<mask id="path-8-inside-4_1849_3877" fill="white">
<rect x="13" y="13" width="12" height="12" rx="1"/>
</mask>
<rect x="13" y="13" width="12" height="12" rx="1" stroke="#101011" stroke-width="4" mask="url(#path-8-inside-4_1849_3877)"/>
<rect x="13" y="13" width="12" height="12" rx="6" stroke="black"/>
</svg>
