<svg width="28" height="25" viewBox="0 0 28 25" fill="none" xmlns="http://www.w3.org/2000/svg">
<path d="M12.8101 4.44005L13.5665 5.3146L14.3229 4.44005C17.6138 0.634879 21.0883 0.407433 23.3012 1.74854C25.5613 3.11826 26.9738 6.38777 25.5825 10.5395C25.5371 10.6751 25.3499 11.0091 24.9374 11.5648C24.5494 12.0876 24.0269 12.7223 23.4082 13.4328C22.1723 14.8521 20.5918 16.5292 19.0266 18.1408C17.4635 19.7504 15.9244 21.2857 14.7756 22.4192C14.295 22.8933 13.883 23.2968 13.5665 23.6057C13.25 23.2968 12.838 22.8933 12.3574 22.4192C11.2085 21.2857 9.66954 19.7504 8.10636 18.1408C6.54121 16.5292 4.96064 14.8521 3.72478 13.4328C3.10608 12.7223 2.58362 12.0876 2.19555 11.5648C1.78308 11.0091 1.59592 10.6751 1.5505 10.5395C0.159178 6.38777 1.57173 3.11826 3.83182 1.74854C6.0447 0.407433 9.51918 0.634879 12.8101 4.44005Z" fill="#101011" stroke="#101011" stroke-width="2"/>
</svg>
