<svg width="28" height="25" viewBox="0 0 28 25" fill="none" xmlns="http://www.w3.org/2000/svg">
<path d="M12.9992 4.27652L13.5665 4.93243L14.1338 4.27652C17.4818 0.405376 21.0865 0.114007 23.4307 1.53474C25.8104 2.97694 27.2402 6.37966 25.8195 10.619C25.7601 10.7963 25.55 11.1589 25.1382 11.7138C24.7446 12.244 24.2175 12.8842 23.5968 13.597C22.3565 15.0213 20.7723 16.7022 19.206 18.315C17.6412 19.9263 16.1008 21.4629 14.9512 22.5971C14.3765 23.1641 13.8998 23.6302 13.5669 23.9544C13.5668 23.9546 13.5666 23.9547 13.5665 23.9549C13.5663 23.9547 13.5662 23.9546 13.566 23.9544C13.2332 23.6302 12.7565 23.1641 12.1818 22.5971C11.0322 21.4629 9.49184 19.9263 7.92701 18.315C6.36072 16.7022 4.7765 15.0213 3.53624 13.597C2.91553 12.8842 2.38836 12.244 1.9948 11.7138C1.58295 11.1589 1.3729 10.7963 1.31346 10.619C-0.107206 6.37966 1.32257 2.97694 3.70225 1.53474C6.04651 0.114007 9.65122 0.405376 12.9992 4.27652Z" stroke="#101011" stroke-width="1.5"/>
</svg>
